<?xml version="1.0" encoding="UTF-8"?>
<!DOCTYPE svg PUBLIC "-//W3C//DTD SVG 1.1//EN" "http://www.w3.org/Graphics/SVG/1.1/DTD/svg11.dtd">
<svg version="1.1" xmlns="http://www.w3.org/2000/svg" xmlns:xlink="http://www.w3.org/1999/xlink" x="0" y="0" width="1200" height="300" viewBox="0, 0, 1200, 300">
  <g id="Layer_1">
    <g>
      <path d="M0.5,0.5 L1200.5,0.5 L1200.5,300.5 L0.5,300.5 L0.5,0.5 z" fill="#0082FF"/>
      <path d="M0.5,0.5 L1200.5,0.5 L1200.5,300.5 L0.5,300.5 L0.5,0.5 z" fill-opacity="0" stroke="#D7D7D7" stroke-width="1"/>
    </g>
  </g>
  <g id="Layer_2">
    <path d="M-105.5,294.5 L-105.5,293.833" fill-opacity="0" stroke="#D7D7D7" stroke-width="1"/>
    <g>
      <g>
        <g>
          <g>
            <g>
              <path d="M10.5,0.5 L10.5,300.5" fill-opacity="0" stroke="#D7D7D7" stroke-width="0.5"/>
              <path d="M20.5,0.5 L20.5,300.5" fill-opacity="0" stroke="#D7D7D7" stroke-width="0.5"/>
              <path d="M30.5,0.5 L30.5,300.5" fill-opacity="0" stroke="#D7D7D7" stroke-width="0.5"/>
              <path d="M40.5,0.5 L40.5,300.5" fill-opacity="0" stroke="#D7D7D7" stroke-width="0.5"/>
              <path d="M50.5,0.5 L50.5,300.5" fill-opacity="0" stroke="#D7D7D7" stroke-width="0.5"/>
              <path d="M60.5,0.5 L60.5,300.5" fill-opacity="0" stroke="#D7D7D7" stroke-width="0.5"/>
              <path d="M70.5,0.5 L70.5,300.5" fill-opacity="0" stroke="#D7D7D7" stroke-width="0.5"/>
              <path d="M80.5,0.5 L80.5,300.5" fill-opacity="0" stroke="#D7D7D7" stroke-width="0.5"/>
            </g>
            <g>
              <path d="M90.5,0.5 L90.5,300.5" fill-opacity="0" stroke="#D7D7D7" stroke-width="0.5"/>
              <path d="M100.5,0.5 L100.5,300.5" fill-opacity="0" stroke="#D7D7D7" stroke-width="0.5"/>
              <path d="M110.5,0.5 L110.5,300.5" fill-opacity="0" stroke="#D7D7D7" stroke-width="0.5"/>
              <path d="M120.5,0.5 L120.5,300.5" fill-opacity="0" stroke="#D7D7D7" stroke-width="0.5"/>
              <path d="M130.5,0.5 L130.5,300.5" fill-opacity="0" stroke="#D7D7D7" stroke-width="0.5"/>
              <path d="M140.5,0.5 L140.5,300.5" fill-opacity="0" stroke="#D7D7D7" stroke-width="0.5"/>
              <path d="M150.5,0.5 L150.5,300.5" fill-opacity="0" stroke="#D7D7D7" stroke-width="0.5"/>
              <path d="M160.5,0.5 L160.5,300.5" fill-opacity="0" stroke="#D7D7D7" stroke-width="0.5"/>
            </g>
          </g>
          <g>
            <g>
              <path d="M170.5,0.5 L170.5,300.5" fill-opacity="0" stroke="#D7D7D7" stroke-width="0.5"/>
              <path d="M180.5,0.5 L180.5,300.5" fill-opacity="0" stroke="#D7D7D7" stroke-width="0.5"/>
              <path d="M190.5,0.5 L190.5,300.5" fill-opacity="0" stroke="#D7D7D7" stroke-width="0.5"/>
              <path d="M200.5,0.5 L200.5,300.5" fill-opacity="0" stroke="#D7D7D7" stroke-width="0.5"/>
              <path d="M210.5,0.5 L210.5,300.5" fill-opacity="0" stroke="#D7D7D7" stroke-width="0.5"/>
              <path d="M220.5,0.5 L220.5,300.5" fill-opacity="0" stroke="#D7D7D7" stroke-width="0.5"/>
              <path d="M230.5,0.5 L230.5,300.5" fill-opacity="0" stroke="#D7D7D7" stroke-width="0.5"/>
              <path d="M240.5,0.5 L240.5,300.5" fill-opacity="0" stroke="#D7D7D7" stroke-width="0.5"/>
            </g>
            <g>
              <path d="M250.5,0.5 L250.5,300.5" fill-opacity="0" stroke="#D7D7D7" stroke-width="0.5"/>
              <path d="M260.5,0.5 L260.5,300.5" fill-opacity="0" stroke="#D7D7D7" stroke-width="0.5"/>
              <path d="M270.5,0.5 L270.5,300.5" fill-opacity="0" stroke="#D7D7D7" stroke-width="0.5"/>
              <path d="M280.5,0.5 L280.5,300.5" fill-opacity="0" stroke="#D7D7D7" stroke-width="0.5"/>
              <path d="M290.5,0.5 L290.5,300.5" fill-opacity="0" stroke="#D7D7D7" stroke-width="0.5"/>
              <path d="M300.5,0.5 L300.5,300.5" fill-opacity="0" stroke="#D7D7D7" stroke-width="0.5"/>
              <path d="M310.5,0.5 L310.5,300.5" fill-opacity="0" stroke="#D7D7D7" stroke-width="0.5"/>
              <path d="M320.5,0.5 L320.5,300.5" fill-opacity="0" stroke="#D7D7D7" stroke-width="0.5"/>
            </g>
          </g>
        </g>
        <g>
          <g>
            <g>
              <path d="M330.755,0.5 L330.755,300.5" fill-opacity="0" stroke="#D7D7D7" stroke-width="0.5"/>
              <path d="M340.755,0.5 L340.755,300.5" fill-opacity="0" stroke="#D7D7D7" stroke-width="0.5"/>
              <path d="M350.755,0.5 L350.755,300.5" fill-opacity="0" stroke="#D7D7D7" stroke-width="0.5"/>
              <path d="M360.755,0.5 L360.755,300.5" fill-opacity="0" stroke="#D7D7D7" stroke-width="0.5"/>
              <path d="M370.755,0.5 L370.755,300.5" fill-opacity="0" stroke="#D7D7D7" stroke-width="0.5"/>
              <path d="M380.755,0.5 L380.755,300.5" fill-opacity="0" stroke="#D7D7D7" stroke-width="0.5"/>
              <path d="M390.755,0.5 L390.755,300.5" fill-opacity="0" stroke="#D7D7D7" stroke-width="0.5"/>
              <path d="M400.755,0.5 L400.755,300.5" fill-opacity="0" stroke="#D7D7D7" stroke-width="0.5"/>
            </g>
            <g>
              <path d="M410.755,0.5 L410.755,300.5" fill-opacity="0" stroke="#D7D7D7" stroke-width="0.5"/>
              <path d="M420.755,0.5 L420.755,300.5" fill-opacity="0" stroke="#D7D7D7" stroke-width="0.5"/>
              <path d="M430.755,0.5 L430.755,300.5" fill-opacity="0" stroke="#D7D7D7" stroke-width="0.5"/>
              <path d="M440.755,0.5 L440.755,300.5" fill-opacity="0" stroke="#D7D7D7" stroke-width="0.5"/>
              <path d="M450.755,0.5 L450.755,300.5" fill-opacity="0" stroke="#D7D7D7" stroke-width="0.5"/>
              <path d="M460.755,0.5 L460.755,300.5" fill-opacity="0" stroke="#D7D7D7" stroke-width="0.5"/>
              <path d="M470.755,0.5 L470.755,300.5" fill-opacity="0" stroke="#D7D7D7" stroke-width="0.5"/>
              <path d="M480.755,0.5 L480.755,300.5" fill-opacity="0" stroke="#D7D7D7" stroke-width="0.5"/>
            </g>
          </g>
          <g>
            <g>
              <path d="M490.755,0.5 L490.755,300.5" fill-opacity="0" stroke="#D7D7D7" stroke-width="0.5"/>
              <path d="M500.755,0.5 L500.755,300.5" fill-opacity="0" stroke="#D7D7D7" stroke-width="0.5"/>
              <path d="M510.755,0.5 L510.755,300.5" fill-opacity="0" stroke="#D7D7D7" stroke-width="0.5"/>
              <path d="M520.755,0.5 L520.755,300.5" fill-opacity="0" stroke="#D7D7D7" stroke-width="0.5"/>
              <path d="M530.755,0.5 L530.755,300.5" fill-opacity="0" stroke="#D7D7D7" stroke-width="0.5"/>
              <path d="M540.755,0.5 L540.755,300.5" fill-opacity="0" stroke="#D7D7D7" stroke-width="0.5"/>
              <path d="M550.755,0.5 L550.755,300.5" fill-opacity="0" stroke="#D7D7D7" stroke-width="0.5"/>
              <path d="M560.755,0.5 L560.755,300.5" fill-opacity="0" stroke="#D7D7D7" stroke-width="0.5"/>
            </g>
            <g>
              <path d="M570.755,0.5 L570.755,300.5" fill-opacity="0" stroke="#D7D7D7" stroke-width="0.5"/>
              <path d="M580.755,0.5 L580.755,300.5" fill-opacity="0" stroke="#D7D7D7" stroke-width="0.5"/>
              <path d="M590.755,0.5 L590.755,300.5" fill-opacity="0" stroke="#D7D7D7" stroke-width="0.5"/>
              <path d="M600.755,0.5 L600.755,300.5" fill-opacity="0" stroke="#D7D7D7" stroke-width="0.5"/>
              <path d="M610.755,0.5 L610.755,300.5" fill-opacity="0" stroke="#D7D7D7" stroke-width="0.5"/>
              <path d="M620.755,0.5 L620.755,300.5" fill-opacity="0" stroke="#D7D7D7" stroke-width="0.5"/>
              <path d="M630.755,0.5 L630.755,300.5" fill-opacity="0" stroke="#D7D7D7" stroke-width="0.5"/>
              <path d="M640.755,0.5 L640.755,300.5" fill-opacity="0" stroke="#D7D7D7" stroke-width="0.5"/>
            </g>
          </g>
        </g>
      </g>
      <g>
        <g>
          <g>
            <path d="M651.245,0.5 L651.245,300.5" fill-opacity="0" stroke="#D7D7D7" stroke-width="0.5"/>
            <path d="M661.245,0.5 L661.245,300.5" fill-opacity="0" stroke="#D7D7D7" stroke-width="0.5"/>
            <path d="M671.245,0.5 L671.245,300.5" fill-opacity="0" stroke="#D7D7D7" stroke-width="0.5"/>
            <path d="M681.245,0.5 L681.245,300.5" fill-opacity="0" stroke="#D7D7D7" stroke-width="0.5"/>
            <path d="M691.245,0.5 L691.245,300.5" fill-opacity="0" stroke="#D7D7D7" stroke-width="0.5"/>
            <path d="M701.245,0.5 L701.245,300.5" fill-opacity="0" stroke="#D7D7D7" stroke-width="0.5"/>
            <path d="M711.245,0.5 L711.245,300.5" fill-opacity="0" stroke="#D7D7D7" stroke-width="0.5"/>
            <path d="M721.245,0.5 L721.245,300.5" fill-opacity="0" stroke="#D7D7D7" stroke-width="0.5"/>
          </g>
          <g>
            <path d="M731.245,0.5 L731.245,300.5" fill-opacity="0" stroke="#D7D7D7" stroke-width="0.5"/>
            <path d="M741.245,0.5 L741.245,300.5" fill-opacity="0" stroke="#D7D7D7" stroke-width="0.5"/>
            <path d="M751.245,0.5 L751.245,300.5" fill-opacity="0" stroke="#D7D7D7" stroke-width="0.5"/>
            <path d="M761.245,0.5 L761.245,300.5" fill-opacity="0" stroke="#D7D7D7" stroke-width="0.5"/>
            <path d="M771.245,0.5 L771.245,300.5" fill-opacity="0" stroke="#D7D7D7" stroke-width="0.5"/>
            <path d="M781.245,0.5 L781.245,300.5" fill-opacity="0" stroke="#D7D7D7" stroke-width="0.5"/>
            <path d="M791.245,0.5 L791.245,300.5" fill-opacity="0" stroke="#D7D7D7" stroke-width="0.5"/>
            <path d="M801.245,0.5 L801.245,300.5" fill-opacity="0" stroke="#D7D7D7" stroke-width="0.5"/>
          </g>
        </g>
        <g>
          <g>
            <path d="M811.245,0.5 L811.245,300.5" fill-opacity="0" stroke="#D7D7D7" stroke-width="0.5"/>
            <path d="M821.245,0.5 L821.245,300.5" fill-opacity="0" stroke="#D7D7D7" stroke-width="0.5"/>
            <path d="M831.245,0.5 L831.245,300.5" fill-opacity="0" stroke="#D7D7D7" stroke-width="0.5"/>
            <path d="M841.245,0.5 L841.245,300.5" fill-opacity="0" stroke="#D7D7D7" stroke-width="0.5"/>
            <path d="M851.245,0.5 L851.245,300.5" fill-opacity="0" stroke="#D7D7D7" stroke-width="0.5"/>
            <path d="M861.245,0.5 L861.245,300.5" fill-opacity="0" stroke="#D7D7D7" stroke-width="0.5"/>
            <path d="M871.245,0.5 L871.245,300.5" fill-opacity="0" stroke="#D7D7D7" stroke-width="0.5"/>
            <path d="M881.245,0.5 L881.245,300.5" fill-opacity="0" stroke="#D7D7D7" stroke-width="0.5"/>
          </g>
          <g>
            <path d="M891.245,0.5 L891.245,300.5" fill-opacity="0" stroke="#D7D7D7" stroke-width="0.5"/>
            <path d="M901.245,0.5 L901.245,300.5" fill-opacity="0" stroke="#D7D7D7" stroke-width="0.5"/>
            <path d="M911.245,0.5 L911.245,300.5" fill-opacity="0" stroke="#D7D7D7" stroke-width="0.5"/>
            <path d="M921.245,0.5 L921.245,300.5" fill-opacity="0" stroke="#D7D7D7" stroke-width="0.5"/>
            <path d="M931.245,0.5 L931.245,300.5" fill-opacity="0" stroke="#D7D7D7" stroke-width="0.5"/>
            <path d="M941.245,0.5 L941.245,300.5" fill-opacity="0" stroke="#D7D7D7" stroke-width="0.5"/>
            <path d="M951.245,0.5 L951.245,300.5" fill-opacity="0" stroke="#D7D7D7" stroke-width="0.5"/>
            <path d="M961.245,0.5 L961.245,300.5" fill-opacity="0" stroke="#D7D7D7" stroke-width="0.5"/>
          </g>
        </g>
      </g>
      <g>
        <g>
          <path d="M971.5,0.5 L971.5,300.5" fill-opacity="0" stroke="#D7D7D7" stroke-width="0.5"/>
          <path d="M981.5,0.5 L981.5,300.5" fill-opacity="0" stroke="#D7D7D7" stroke-width="0.5"/>
          <path d="M991.5,0.5 L991.5,300.5" fill-opacity="0" stroke="#D7D7D7" stroke-width="0.5"/>
          <path d="M1001.5,0.5 L1001.5,300.5" fill-opacity="0" stroke="#D7D7D7" stroke-width="0.5"/>
          <path d="M1011.5,0.5 L1011.5,300.5" fill-opacity="0" stroke="#D7D7D7" stroke-width="0.5"/>
          <path d="M1021.5,0.5 L1021.5,300.5" fill-opacity="0" stroke="#D7D7D7" stroke-width="0.5"/>
          <path d="M1031.5,0.5 L1031.5,300.5" fill-opacity="0" stroke="#D7D7D7" stroke-width="0.5"/>
          <path d="M1041.5,0.5 L1041.5,300.5" fill-opacity="0" stroke="#D7D7D7" stroke-width="0.5"/>
        </g>
        <g>
          <path d="M1051.5,0.5 L1051.5,300.5" fill-opacity="0" stroke="#D7D7D7" stroke-width="0.5"/>
          <path d="M1061.5,0.5 L1061.5,300.5" fill-opacity="0" stroke="#D7D7D7" stroke-width="0.5"/>
          <path d="M1071.5,0.5 L1071.5,300.5" fill-opacity="0" stroke="#D7D7D7" stroke-width="0.5"/>
          <path d="M1081.5,0.5 L1081.5,300.5" fill-opacity="0" stroke="#D7D7D7" stroke-width="0.5"/>
          <path d="M1091.5,0.5 L1091.5,300.5" fill-opacity="0" stroke="#D7D7D7" stroke-width="0.5"/>
          <path d="M1101.5,0.5 L1101.5,300.5" fill-opacity="0" stroke="#D7D7D7" stroke-width="0.5"/>
          <path d="M1111.5,0.5 L1111.5,300.5" fill-opacity="0" stroke="#D7D7D7" stroke-width="0.5"/>
          <path d="M1121.5,0.5 L1121.5,300.5" fill-opacity="0" stroke="#D7D7D7" stroke-width="0.5"/>
        </g>
      </g>
      <g>
        <path d="M1131.5,0.5 L1131.5,300.5" fill-opacity="0" stroke="#D7D7D7" stroke-width="0.5"/>
        <path d="M1141.5,0.5 L1141.5,300.5" fill-opacity="0" stroke="#D7D7D7" stroke-width="0.5"/>
        <path d="M1151.5,0.5 L1151.5,300.5" fill-opacity="0" stroke="#D7D7D7" stroke-width="0.5"/>
        <path d="M1161.5,0.5 L1161.5,300.5" fill-opacity="0" stroke="#D7D7D7" stroke-width="0.5"/>
        <path d="M1171.5,0.5 L1171.5,300.5" fill-opacity="0" stroke="#D7D7D7" stroke-width="0.5"/>
        <path d="M1181.5,0.5 L1181.5,300.5" fill-opacity="0" stroke="#D7D7D7" stroke-width="0.5"/>
        <path d="M1191.5,0.5 L1191.5,300.5" fill-opacity="0" stroke="#D7D7D7" stroke-width="0.5"/>
        <path d="M1201.5,0.5 L1201.5,300.5" fill-opacity="0" stroke="#D7D7D7" stroke-width="0.5"/>
      </g>
    </g>
  </g>
  <g id="Layer_3">
    <g>
      <g>
        <path d="M0.5,9.833 L1200.5,10.5" fill-opacity="0" stroke="#D7D7D7" stroke-width="0.5"/>
        <path d="M0.833,20.167 L1200.833,20.833" fill-opacity="0" stroke="#D7D7D7" stroke-width="0.5"/>
        <path d="M0.5,30.167 L1200.5,30.833" fill-opacity="0" stroke="#D7D7D7" stroke-width="0.5"/>
        <path d="M0.5,40.5 L1200.5,41.167" fill-opacity="0" stroke="#D7D7D7" stroke-width="0.5"/>
        <path d="M0.833,50.167 L1200.833,50.833" fill-opacity="0" stroke="#D7D7D7" stroke-width="0.5"/>
        <path d="M0.5,60.5 L1200.5,61.167" fill-opacity="0" stroke="#D7D7D7" stroke-width="0.5"/>
        <path d="M0.5,70.5 L1200.5,71.167" fill-opacity="0" stroke="#D7D7D7" stroke-width="0.5"/>
        <path d="M0.5,79.833 L1200.5,80.5" fill-opacity="0" stroke="#D7D7D7" stroke-width="0.5"/>
      </g>
      <g>
        <path d="M1.167,89.833 L1201.167,90.5" fill-opacity="0" stroke="#D7D7D7" stroke-width="0.5"/>
        <path d="M1.5,100.167 L1201.5,100.833" fill-opacity="0" stroke="#D7D7D7" stroke-width="0.5"/>
        <path d="M1.167,110.167 L1201.167,110.833" fill-opacity="0" stroke="#D7D7D7" stroke-width="0.5"/>
        <path d="M1.167,120.5 L1201.167,121.167" fill-opacity="0" stroke="#D7D7D7" stroke-width="0.5"/>
        <path d="M1.5,130.167 L1201.5,130.833" fill-opacity="0" stroke="#D7D7D7" stroke-width="0.5"/>
        <path d="M1.167,140.5 L1201.167,141.167" fill-opacity="0" stroke="#D7D7D7" stroke-width="0.5"/>
        <path d="M1.167,150.5 L1201.167,151.167" fill-opacity="0" stroke="#D7D7D7" stroke-width="0.5"/>
        <path d="M1.167,159.833 L1201.167,160.5" fill-opacity="0" stroke="#D7D7D7" stroke-width="0.5"/>
      </g>
      <g>
        <path d="M0.5,170.5 L1200.5,171.167" fill-opacity="0" stroke="#D7D7D7" stroke-width="0.5"/>
        <path d="M0.833,180.833 L1200.833,181.5" fill-opacity="0" stroke="#D7D7D7" stroke-width="0.5"/>
        <path d="M0.5,190.833 L1200.5,191.5" fill-opacity="0" stroke="#D7D7D7" stroke-width="0.5"/>
        <path d="M0.5,201.167 L1200.5,201.833" fill-opacity="0" stroke="#D7D7D7" stroke-width="0.5"/>
        <path d="M0.833,210.833 L1200.833,211.5" fill-opacity="0" stroke="#D7D7D7" stroke-width="0.5"/>
        <path d="M0.5,221.167 L1200.5,221.833" fill-opacity="0" stroke="#D7D7D7" stroke-width="0.5"/>
        <path d="M0.5,231.167 L1200.5,231.833" fill-opacity="0" stroke="#D7D7D7" stroke-width="0.5"/>
        <path d="M0.5,240.5 L1200.5,241.167" fill-opacity="0" stroke="#D7D7D7" stroke-width="0.5"/>
      </g>
      <path d="M0.333,250.833 L1200.333,251.5" fill-opacity="0" stroke="#D7D7D7" stroke-width="0.5"/>
      <path d="M0.667,261.167 L1200.667,261.833" fill-opacity="0" stroke="#D7D7D7" stroke-width="0.5"/>
      <path d="M0.333,271.167 L1200.333,271.833" fill-opacity="0" stroke="#D7D7D7" stroke-width="0.5"/>
      <path d="M0.333,281.5 L1200.333,282.167" fill-opacity="0" stroke="#D7D7D7" stroke-width="0.5"/>
      <path d="M0.667,291.167 L1200.667,291.833" fill-opacity="0" stroke="#D7D7D7" stroke-width="0.5"/>
    </g>
  </g>
</svg>
