<?xml version="1.0" encoding="UTF-8"?>
<!DOCTYPE svg PUBLIC "-//W3C//DTD SVG 1.1//EN" "http://www.w3.org/Graphics/SVG/1.1/DTD/svg11.dtd">
<svg version="1.1" xmlns="http://www.w3.org/2000/svg" xmlns:xlink="http://www.w3.org/1999/xlink" x="0" y="0" width="951" height="343" viewBox="0, 0, 951, 343">
  <g id="text">
    <path d="M217.59,126.626 L194.249,248.164 L156.282,166.755 L142.937,210.833 L121.345,210.058 L74.045,146.982 L104.804,125.127 L128.479,170.901 L140.015,133.626 L156.058,122.714 L179.898,161.835 L187.203,117.223 z" fill="#00D1D4"/>
    <path d="M179.19,104.274 L177.335,115.606 L174.391,133.581 L164.597,117.509 L159.126,108.532 L150.433,114.445 L134.391,125.357 L131.497,127.325 L130.462,130.669 L126.145,144.62 L113.686,120.532 L108.397,110.306 L99.012,116.974 L68.252,138.83 L59.889,144.773 L66.044,152.981 L113.345,216.056 L116.211,219.879 L120.986,220.05 L142.578,220.826 L150.276,221.102 L152.508,213.73 L158.274,194.685 L185.186,252.39 L198.243,280.387 L204.069,250.049 L227.411,128.511 L229.099,119.719 L220.546,117.072 L190.159,107.669 z M187.203,117.222 L217.59,126.625 L194.249,248.163 L156.282,166.754 L142.937,210.832 L121.345,210.057 L74.044,146.982 L104.804,125.126 L128.479,170.9 L140.015,133.626 L156.058,122.713 L179.898,161.834 z" fill="#FFFFFF"/>
    <path d="M254.117,217.282 L219.838,220.282 L219.838,135.78 L249.804,135.78 z" fill="#00D1D4"/>
    <path d="M259.289,125.78 L249.804,125.78 L219.838,125.78 L219.838,132.615 L215.785,139.949 L209.838,220.282 L204.7,231.645 L220.71,230.244 L254.99,227.244 L264.615,226.402 L264.104,216.754 L259.79,135.252 z M249.804,135.78 L254.118,217.282 L219.838,220.282 L219.838,135.78 z" fill="#FFFFFF"/>
    <path d="M290.033,210.566 L260.181,207.954 L265.935,87.497 L300.06,95.955 z" fill="#00D1D4"/>
    <path d="M256.527,74.863 L255.946,87.02 L256.451,204.281 L256.451,214.028 L259.309,217.916 L289.161,220.528 L299.123,221.4 L299.995,211.437 L310.022,96.826 L310.767,88.306 L302.465,86.249 L268.34,77.791 z M265.935,87.497 L300.06,95.955 L290.033,210.566 L260.181,207.954 z" fill="#FFFFFF"/>
    <g>
      <path d="M361.737,179.886 L363.908,155.068 C362.992,151.232 359.898,149.052 358.014,148.054 C356.129,147.056 352.189,145.843 349.547,145.573 C341.786,144.782 338.807,142.946 330.931,146.767 C325.584,149.361 321.145,157.65 320.45,165.588 C319.799,173.03 318.625,189.519 326.986,194.474 C331.059,196.889 339.727,198.721 344.642,197.812 C353.067,196.253 353.067,196.253 354.784,193.949 C359.352,187.82 361.405,183.681 361.737,179.886 M388.117,210.566 L358.75,214.028 L359.416,206.42 C356.042,208.791 352.529,210.678 348.88,212.081 C345.229,213.483 340.317,213.915 334.143,213.375 C328.024,212.839 322.147,210.798 316.514,207.249 C310.88,203.702 306.443,198.55 303.201,191.794 C299.959,185.04 298.705,165.339 301.974,156.106 C305.231,146.907 302.35,152.307 305.803,145.86 C309.256,139.413 314.225,134.363 320.711,130.708 C327.196,127.054 334.877,125.615 343.753,126.391 C349.265,126.873 353.677,127.871 356.99,129.382 C360.301,130.894 363.198,132.703 365.681,134.809 L368.777,99.416 L397.973,81.424 z" fill="#00D1D4"/>
      <path d="M341.701,188.049 C338.128,188.049 333.547,186.738 332.084,185.872 C331.99,185.788 328.959,183.069 330.412,166.46 C330.905,160.831 334.063,156.409 335.302,155.761 C338.04,154.432 339.148,154.432 339.743,154.432 C340.704,154.432 341.974,154.624 343.582,154.868 C345.001,155.082 346.61,155.326 348.533,155.522 C349.9,155.661 352.53,156.48 353.342,156.895 C353.472,156.964 353.588,157.034 353.692,157.103 L351.775,179.014 C351.68,180.106 350.827,182.388 347.404,187.105 C346.252,187.344 344.568,187.655 342.822,187.979 C342.759,187.99 342.407,188.049 341.701,188.049 M409.438,62.612 L392.727,72.911 L363.531,90.903 L359.253,93.539 L358.815,98.545 L357.05,118.724 C353.495,117.602 349.39,116.846 344.624,116.429 C342.788,116.268 340.962,116.187 339.197,116.187 C330.515,116.187 322.644,118.141 315.803,121.995 C307.665,126.58 301.336,133.021 296.988,141.139 L296.918,141.27 C294.853,145.124 298.536,145.838 298.118,148.131 C297.965,148.967 299.02,159.461 294.784,159.948 C293.277,173.478 295.451,182.693 296.784,192.331 C300.839,200.78 303.96,211.162 311.186,215.712 C318.149,220.098 325.58,222.664 333.271,223.337 C335.267,223.511 337.194,223.6 338.998,223.6 C342.289,223.6 345.252,223.318 347.95,222.743 L347.717,225.397 L359.921,223.959 L389.288,220.497 L397.462,219.534 L398.088,211.327 L407.944,82.185 z M341.701,198.049 C342.769,198.049 343.765,197.974 344.642,197.812 C353.067,196.253 353.067,196.253 354.784,193.948 C359.352,187.82 361.405,183.681 361.737,179.886 L363.909,155.068 C362.993,151.232 359.898,149.052 358.014,148.054 C356.129,147.056 352.189,145.842 349.547,145.573 C345.408,145.152 342.629,144.432 339.743,144.432 C337.216,144.432 334.607,144.983 330.931,146.767 C325.584,149.361 321.145,157.65 320.451,165.588 C319.8,173.03 318.625,189.519 326.986,194.474 C330.332,196.458 336.781,198.049 341.701,198.049 M397.973,81.424 L388.117,210.566 L358.75,214.028 L359.416,206.42 C356.042,208.791 352.53,210.678 348.88,212.081 C346.244,213.093 342.95,213.6 338.998,213.6 C337.477,213.6 335.859,213.525 334.143,213.375 C328.024,212.839 322.147,210.798 316.514,207.249 C310.88,203.702 306.443,198.55 303.201,191.794 C299.959,185.04 298.705,165.339 301.974,156.106 C305.231,146.907 302.35,152.307 305.803,145.86 C309.256,139.413 314.225,134.362 320.711,130.708 C326.06,127.694 332.222,126.187 339.197,126.187 C340.679,126.187 342.198,126.255 343.753,126.391 C349.265,126.873 353.677,127.871 356.99,129.382 C360.301,130.894 363.199,132.703 365.681,134.809 L368.777,99.416 L397.973,81.424" fill="#FFFFFF"/>
      <path d="M477.272,214.983 C474.172,216.477 473.897,217.917 468.448,219.299 C462.996,220.682 457.78,221.375 452.801,221.375 C431.272,221.375 416.367,210.311 416.367,189.282 L420.51,156.13 L397.974,159.63 L398.228,144.537 L447.327,109.802 L450.477,110.061 L447.617,137.282 L479.031,132.032 L479.031,156.13 L450.477,156.13 L450.477,183.191 C450.477,186.345 450.669,188.891 451.057,190.828 C451.444,192.765 452.538,194.384 454.336,195.684 C456.133,196.984 458.859,197.634 462.513,197.634 C467.271,197.634 469.525,195.642 477.272,191.658 z" fill="#FFC40A"/>
      <path d="M444.522,99.537 L441.552,101.638 L396.117,136.373 L393.197,144.005 L392.784,159.615 L394.279,170.324 L399.508,169.512 L408.943,168.046 L406.445,188.042 L406.367,188.659 L406.367,189.282 C406.367,214.852 424.593,231.374 452.8,231.374 C458.583,231.374 464.675,230.573 470.906,228.992 C475.829,227.743 478.23,226.26 480.449,224.723 C481.05,224.307 481.274,224.155 481.614,223.991 L487.272,221.264 L487.272,214.983 L487.272,191.658 L487.272,175.27 L472.699,182.765 C470.824,183.729 469.295,184.56 467.945,185.294 C463.933,187.475 463.484,187.634 462.513,187.634 C461.697,187.634 461.095,187.586 460.668,187.529 C460.565,186.57 460.476,185.168 460.476,183.191 L460.476,166.13 L479.031,166.13 L489.031,166.13 L489.031,156.13 L489.031,132.032 L489.031,120.222 L477.383,122.168 L458.936,125.251 L460.421,111.105 L461.49,100.934 L451.297,100.095 L448.148,99.835 z M447.328,109.802 L450.476,110.061 L447.617,137.282 L479.031,132.032 L479.031,156.13 L450.476,156.13 L450.476,183.191 C450.476,186.345 450.669,188.891 451.057,190.828 C451.444,192.765 452.537,194.384 454.336,195.683 C456.134,196.984 458.86,197.634 462.513,197.634 C467.272,197.634 469.524,195.642 477.272,191.658 L477.272,214.983 C474.173,216.477 473.897,217.916 468.448,219.299 C462.996,220.682 457.781,221.374 452.8,221.374 C431.273,221.374 416.367,210.311 416.367,189.282 L420.51,156.13 L397.973,159.63 L398.228,144.537 L447.328,109.802" fill="#FFFFFF"/>
      <path d="M572.117,219.88 L536.367,219.88 L542.234,176.052 C542.234,175.72 542.247,175.402 542.275,175.097 C542.303,174.794 542.317,174.143 542.317,173.147 C542.317,169.108 541.459,165.4 539.744,162.024 C538.028,158.649 534.763,156.96 529.949,156.96 C526.185,156.96 520.857,158.471 517.367,160.031 C513.747,161.65 509.718,164.963 507.117,168.781 L502.617,219.88 L481.888,219.88 L481.888,104.831 L516.617,104.831 L509.617,147.531 C514.542,142.275 521.565,138.657 526.38,136.748 C531.194,134.838 536.312,133.884 541.736,133.884 C561.99,133.884 572.117,145.256 572.117,168 z" fill="#FFC40A"/>
      <path d="M528.391,94.831 L522.504,94.831 L516.618,94.831 L499.252,94.831 L481.888,94.831 L476.888,94.831 L471.888,94.831 L471.911,123.083 L474.118,165.455 L473.452,186.615 L479.032,185.615 L481.888,216.615 L466.996,229.88 L476.888,229.88 L481.888,229.88 L492.252,229.88 L502.618,229.88 L507.197,229.88 L511.776,229.88 L512.177,225.318 L512.579,220.757 L514.698,196.699 L516.817,172.641 C517.571,171.839 518.399,171.117 519.203,170.52 C520.008,169.925 520.788,169.456 521.45,169.161 C522.784,168.564 524.423,168.014 525.972,167.613 C527.522,167.212 528.98,166.96 529.95,166.96 C530.204,166.96 530.422,166.969 530.607,166.983 C530.79,166.997 530.942,167.016 531.062,167.036 C531.484,167.955 531.798,168.917 532.006,169.932 C532.214,170.945 532.318,172.014 532.318,173.146 C532.318,173.508 532.316,173.772 532.313,173.962 C532.31,174.152 532.307,174.264 532.305,174.324 C532.291,174.479 532.28,174.637 532.271,174.798 C532.261,174.958 532.253,175.124 532.247,175.289 L529.352,196.921 L526.456,218.553 L525.698,224.217 L524.94,229.88 L530.654,229.88 L536.368,229.88 L554.243,229.88 L572.118,229.88 L577.118,229.88 L582.118,229.88 L582.118,224.88 L582.118,219.88 L582.118,193.94 L582.118,168.001 C582.118,161.078 581.265,154.906 579.574,149.52 C577.882,144.134 575.35,139.536 571.991,135.764 C568.481,131.822 564.181,128.852 559.127,126.868 C554.073,124.883 548.264,123.884 541.737,123.884 C538.473,123.884 535.272,124.171 532.153,124.743 C529.035,125.315 525.998,126.17 523.067,127.306 L524.777,116.877 L526.486,106.449 L527.438,100.64 z M516.618,104.831 L509.618,147.531 C514.542,142.274 521.566,138.658 526.38,136.749 C531.195,134.839 536.313,133.884 541.737,133.884 C561.991,133.884 572.118,145.257 572.118,168.001 L572.118,219.88 L536.368,219.88 L542.235,176.052 C542.235,175.721 542.247,175.402 542.276,175.098 C542.303,174.794 542.318,174.143 542.318,173.146 C542.318,169.107 541.459,165.399 539.745,162.023 C538.029,158.648 534.764,156.96 529.95,156.96 C526.186,156.96 520.858,158.471 517.368,160.031 C513.747,161.65 509.718,164.964 507.118,168.781 L502.618,219.88 L481.888,219.88 L481.888,104.831 L516.618,104.831" fill="#FFFFFF"/>
      <path d="M610.6,115.872 C610.6,119.358 609.355,122.319 606.865,124.754 C604.374,127.189 601.413,128.406 597.983,128.406 C595.659,128.406 593.542,127.853 591.632,126.746 C589.724,125.64 588.215,124.131 587.109,122.222 C586.001,120.313 585.449,118.196 585.449,115.872 C585.449,112.441 586.665,109.48 589.101,106.99 C591.536,104.5 594.496,103.255 597.983,103.255 C601.413,103.255 604.374,104.5 606.865,106.99 C609.355,109.48 610.6,112.441 610.6,115.872 M613.007,219.881 L583.041,219.881 L577.618,133.885 L613.007,135.379 z" fill="#FFC40A"/>
      <path d="M597.982,93.254 C591.807,93.254 586.263,95.587 581.95,99.999 C577.696,104.347 575.448,109.837 575.448,115.871 C575.448,118.668 575.919,121.336 576.852,123.843 L566.937,123.424 L567.637,134.513 L570.367,143.031 L575.617,173.781 L572.636,213.78 L573.06,220.509 L573.651,229.88 L583.041,229.88 L613.006,229.88 L623.006,229.88 L623.006,219.88 L623.006,135.378 L623.006,125.792 L618.424,125.598 C619.859,122.628 620.599,119.349 620.599,115.871 C620.599,109.795 618.294,104.278 613.935,99.919 C609.575,95.559 604.058,93.254 597.982,93.254 M577.617,133.884 L613.006,135.378 L613.006,219.88 L583.041,219.88 L577.617,133.884 M597.982,103.254 C601.413,103.254 604.374,104.499 606.864,106.989 C609.354,109.48 610.599,112.441 610.599,115.871 C610.599,119.358 609.354,122.318 606.864,124.753 C604.374,127.189 601.413,128.405 597.982,128.405 C595.658,128.405 593.542,127.853 591.631,126.745 C589.723,125.639 588.214,124.13 587.108,122.221 C586.001,120.312 585.448,118.195 585.448,115.871 C585.448,112.441 586.665,109.48 589.1,106.989 C591.535,104.499 594.496,103.254 597.982,103.254" fill="#FFFFFF"/>
      <path d="M696.117,215.604 L672.784,221.38 L678.439,175.809 C678.439,171.16 677.678,167.107 676.156,163.648 C674.634,160.19 671.301,158.46 666.154,158.46 C663.719,158.46 661.574,158.916 659.721,159.83 C657.866,160.743 656.206,161.919 654.74,163.357 C653.273,164.797 652.043,166.18 651.047,167.508 C650.051,168.836 649.026,170.247 647.975,171.741 L647.975,212.065 L633.117,215.604 L618.093,136.878 L647.975,136.878 L647.975,148.997 C652.679,143.962 657.396,140.434 662.129,138.414 C666.859,136.394 673.011,133.137 679.117,131.282 C698.45,125.408 708.322,129.216 708.322,153.454 z" fill="#FFC40A"/>
      <path d="M692.467,118.852 L692.467,128.852 L692.467,118.852 L692.465,118.852 C687.864,118.852 682.548,119.789 676.211,121.714 C671.243,123.223 666.574,125.385 662.454,127.293 C660.915,128.006 659.461,128.679 658.202,129.216 C658.127,129.249 658.051,129.281 657.976,129.314 L657.976,126.878 L647.976,126.878 L618.425,125.598 L613.007,128.852 L615.117,138.282 L620.117,216.615 L623.007,229.88 L635.435,225.332 L650.292,221.793 L657.976,219.963 L657.976,212.065 L657.976,174.955 C658.336,174.461 658.694,173.978 659.047,173.508 C659.737,172.588 660.644,171.574 661.744,170.495 C662.453,169.799 663.237,169.245 664.138,168.801 C664.592,168.578 665.288,168.46 666.155,168.46 C666.67,168.46 667.061,168.491 667.343,168.528 C668.021,170.405 668.387,172.654 668.434,175.232 L662.861,220.148 L661.07,234.581 L675.187,231.087 L698.521,225.311 L702.586,229.88 L705.93,217.531 L718.135,155.381 L718.322,154.427 L718.322,153.454 C718.322,142.436 716.512,134.625 712.625,128.871 C709.538,124.3 703.535,118.852 692.467,118.852 M692.465,128.852 C702.984,128.851 708.322,135.626 708.322,153.454 L696.117,215.604 L672.784,221.38 L678.44,175.809 C678.44,171.16 677.678,167.107 676.156,163.648 C674.634,160.19 671.301,158.46 666.155,158.46 C663.719,158.46 661.574,158.916 659.721,159.83 C657.866,160.743 656.206,161.919 654.74,163.357 C653.274,164.797 652.043,166.18 651.047,167.508 C650.051,168.836 649.027,170.247 647.976,171.741 L647.976,212.065 L633.117,215.604 L618.093,136.878 L647.976,136.878 L647.976,148.997 C652.679,143.962 657.397,140.434 662.129,138.414 C666.86,136.394 673.011,133.137 679.117,131.282 C684.231,129.728 688.684,128.852 692.465,128.852" fill="#FFFFFF"/>
      <path d="M813.191,219.88 L771.802,215.613 L742.8,179.787 L737.473,219.88 L712.586,219.88 L712.586,104.831 L752.473,103.254 L745.003,156.594 L771.117,120.281 L808.294,135.378 L762.888,165.588 z" fill="#FFC40A"/>
      <path d="M764.037,92.79 L752.078,93.263 L712.19,94.84 L702.586,95.22 L702.586,120.693 L708.322,135.949 L711.451,165.456 L705.451,183.616 L702.586,229.881 L712.586,229.881 L737.474,229.881 L746.232,229.881 L747.387,221.198 L749.652,204.145 L764.03,221.906 L766.644,225.136 L770.777,225.561 L812.166,229.828 L832.585,230.628 L820.526,213.084 L778.207,167.408 L813.833,143.705 L829.578,133.229 L812.056,126.114 L774.88,111.017 L767.592,108.058 L762.999,114.444 L760.521,117.889 L762.377,104.642 z M752.474,103.255 L745.003,156.595 L771.117,120.282 L808.294,135.379 L762.889,165.589 L813.191,219.881 L771.803,215.614 L742.801,179.788 L737.474,219.881 L712.586,219.881 L712.586,104.832 z" fill="#FFFFFF"/>
      <path d="M866.369,194.48 C866.369,202.228 863.532,208.522 857.86,213.364 C852.187,218.207 843.763,220.627 832.585,220.627 C826.331,220.627 820.769,220.06 815.9,218.926 C811.03,217.792 821.655,221.029 815.9,218.926 L794.073,183.535 C799.108,186.413 809.37,197.883 813.078,199.377 C816.785,200.872 820.852,201.619 825.28,201.619 C832.751,201.619 836.486,199.572 836.486,195.476 C836.486,194.093 835.946,192.861 834.868,191.782 C833.788,190.703 831.906,189.486 829.223,188.13 C826.538,186.774 822.956,185.156 818.473,183.274 C812.939,180.839 808.235,177.575 804.362,173.479 C800.488,169.384 798.552,164.376 798.552,158.455 C798.552,154.25 799.839,150.209 802.411,146.335 C804.985,142.462 808.872,139.294 814.074,136.831 C819.275,134.369 825.556,133.137 832.917,133.137 C834.687,133.137 836.942,133.262 839.682,133.511 C842.421,133.76 845.879,134.411 850.057,135.461 C854.235,136.513 858.206,138.007 861.97,139.944 L873.073,173.039 C871.302,171.988 858.718,158.676 857.528,157.957 C856.338,157.238 854.748,156.435 852.756,155.549 C850.764,154.665 848.425,153.876 845.741,153.184 C843.057,152.492 840.305,152.146 837.482,152.146 C834.051,152.146 831.699,152.81 830.427,154.138 C829.153,155.466 828.517,156.794 828.517,158.123 C828.517,159.506 829.181,160.793 830.51,161.982 C831.838,163.173 834.798,164.653 839.391,166.423 C846.032,168.969 851.345,171.584 855.329,174.268 C859.313,176.952 862.148,179.899 863.837,183.108 C865.524,186.318 866.369,190.109 866.369,194.48" fill="#FFC40A"/>
      <path d="M832.917,123.137 C824.102,123.137 816.322,124.703 809.796,127.792 C802.953,131.032 811.877,129.987 808.294,135.378 C804.623,140.907 788.552,152.267 788.552,158.454 C788.552,162.589 782.444,158.793 783.784,162.356 L771.574,166.106 L785.562,188.784 L813.191,219.88 L802.784,223.949 L805.924,223.696 C806.848,225.295 808.022,226.371 809.208,227.124 L809.576,227.72 L811.001,228.053 C811.758,228.37 812.465,228.59 813.051,228.773 C814.927,229.357 816.15,229.654 817.633,229.654 L818.813,229.654 C823.062,230.301 827.673,230.627 832.585,230.627 C846.158,230.627 856.847,227.378 864.354,220.97 C872.214,214.259 876.369,205.099 876.369,194.48 C876.369,191.533 876.069,188.73 875.474,186.089 L891.111,195.365 L882.554,169.858 L871.45,136.763 L870.158,132.911 L866.545,131.052 C862.122,128.776 857.396,126.997 852.499,125.764 C847.766,124.574 843.87,123.85 840.588,123.552 C837.519,123.273 835.009,123.137 832.917,123.137 M814.629,218.677 C814.753,218.677 815.136,218.747 815.9,218.926 C817.38,219.466 817.776,219.654 817.633,219.654 C817.306,219.654 814.167,218.677 814.629,218.677 M832.917,133.137 C834.688,133.137 836.942,133.262 839.683,133.511 C842.421,133.76 845.879,134.41 850.058,135.461 C854.235,136.513 858.206,138.007 861.97,139.944 L873.073,173.038 C871.302,171.988 858.718,158.676 857.528,157.956 C856.338,157.238 854.748,156.435 852.756,155.549 C850.764,154.664 848.425,153.876 845.741,153.183 C843.057,152.492 840.305,152.146 837.482,152.146 C834.051,152.146 831.699,152.81 830.427,154.138 C829.153,155.466 828.518,156.794 828.518,158.122 C828.518,159.506 829.182,160.793 830.51,161.982 C831.838,163.173 834.798,164.653 839.392,166.423 C846.032,168.969 851.345,171.584 855.329,174.267 C859.313,176.952 862.148,179.899 863.837,183.108 C865.524,186.318 866.369,190.109 866.369,194.48 C866.369,202.228 863.532,208.522 857.86,213.364 C852.188,218.207 843.763,220.627 832.585,220.627 C826.331,220.627 820.77,220.059 815.9,218.926 L794.073,183.534 C799.108,186.412 809.37,197.883 813.078,199.377 C816.785,200.871 820.853,201.618 825.28,201.618 C832.751,201.618 836.486,199.572 836.486,195.476 C836.486,194.093 835.946,192.861 834.868,191.782 C833.788,190.703 831.906,189.486 829.224,188.13 C826.538,186.774 822.956,185.156 818.474,183.274 C812.939,180.839 808.235,177.575 804.362,173.479 C800.488,169.384 798.552,164.376 798.552,158.454 C798.552,154.249 799.839,150.209 802.411,146.335 C804.985,142.462 808.872,139.294 814.074,136.831 C819.275,134.369 825.557,133.137 832.917,133.137" fill="#FFFFFF"/>
      <path d="M242.718,86.732 C242.95,90.681 241.254,94.568 238.235,97.124 C235.911,99.091 233.207,100.073 230.124,100.073 C227.8,100.073 225.683,99.521 223.774,98.413 C221.865,97.307 220.357,95.798 219.25,93.889 C218.143,91.98 217.59,89.863 217.59,87.539 C217.59,84.171 218.762,81.256 221.11,78.795 C223.426,76.366 226.678,74.943 230.035,74.922 C233.504,74.9 236.494,76.146 239.006,78.657 C241.299,80.95 242.536,83.642 242.718,86.732" fill="#00D1D4"/>
      <path d="M230.124,64.922 L229.971,64.922 C223.928,64.961 218.061,67.502 213.872,71.895 C209.762,76.205 207.59,81.615 207.59,87.539 C207.59,91.639 208.604,95.464 210.6,98.907 C212.585,102.332 215.331,105.078 218.76,107.065 C222.201,109.061 226.025,110.073 230.124,110.073 C235.548,110.073 240.587,108.235 244.695,104.757 C250.124,100.162 253.117,93.204 252.701,86.145 C252.376,80.629 250.087,75.595 246.077,71.586 C241.717,67.227 236.201,64.922 230.124,64.922 M230.124,74.922 C233.555,74.922 236.516,76.167 239.007,78.657 C241.299,80.95 242.536,83.642 242.719,86.732 C242.951,90.681 241.253,94.568 238.234,97.124 C235.911,99.091 233.208,100.073 230.124,100.073 C227.801,100.073 225.684,99.521 223.775,98.413 C221.865,97.307 220.357,95.798 219.251,93.889 C218.143,91.98 217.59,89.863 217.59,87.539 C217.59,84.172 218.762,81.256 221.109,78.795 C223.426,76.366 226.678,74.943 230.036,74.922 C230.064,74.922 230.094,74.922 230.124,74.922" fill="#FFFFFF"/>
    </g>
  </g>
</svg>
