<?xml version="1.0" encoding="UTF-8"?>
<!DOCTYPE svg PUBLIC "-//W3C//DTD SVG 1.1//EN" "http://www.w3.org/Graphics/SVG/1.1/DTD/svg11.dtd">
<svg version="1.1" xmlns="http://www.w3.org/2000/svg" xmlns:xlink="http://www.w3.org/1999/xlink" x="0" y="0" width="500" height="500" viewBox="0, 0, 500, 500">
  <defs>
    <radialGradient id="Gradient_1" gradientUnits="userSpaceOnUse" cx="251.113" cy="264.768" r="326.588">
      <stop offset="0.423" stop-color="#EAEAEA"/>
      <stop offset="1" stop-color="#36B7ED"/>
    </radialGradient>
  </defs>
  <g id="Layer_3">
    <g>
      <path d="M59.326,12.721 L441.674,12.721 C467.413,12.721 488.279,33.587 488.279,59.326 L488.279,441.674 C488.279,467.413 467.413,488.279 441.674,488.279 L59.326,488.279 C33.587,488.279 12.721,467.413 12.721,441.674 L12.721,59.326 C12.721,33.587 33.587,12.721 59.326,12.721 z" fill="url(#Gradient_1)"/>
      <path d="M59.326,12.721 L441.674,12.721 C467.413,12.721 488.279,33.587 488.279,59.326 L488.279,441.674 C488.279,467.413 467.413,488.279 441.674,488.279 L59.326,488.279 C33.587,488.279 12.721,467.413 12.721,441.674 L12.721,59.326 C12.721,33.587 33.587,12.721 59.326,12.721 z" fill-opacity="0" stroke="#FFFFFF" stroke-width="16"/>
    </g>
    <g>
      <path d="M250.5,369 C185.054,369 132,315.946 132,250.5 C132,185.054 185.054,132 250.5,132 C315.946,132 369,185.054 369,250.5 C369,315.946 315.946,369 250.5,369 z" fill="#FFE436"/>
      <path d="M250.5,369 C185.054,369 132,315.946 132,250.5 C132,185.054 185.054,132 250.5,132 C315.946,132 369,185.054 369,250.5 C369,315.946 315.946,369 250.5,369 z" fill-opacity="0" stroke="#EAA616" stroke-width="3"/>
    </g>
    <path d="M250.5,80.5 L250.5,117.5" fill-opacity="0" stroke="#F2D000" stroke-width="10" stroke-linecap="round"/>
    <path d="M659.5,322.5 L660.5,322.5" fill-opacity="0" stroke="#FFE436" stroke-width="10"/>
    <path d="M250.5,384.5 L250.5,421.5" fill-opacity="0" stroke="#F2D000" stroke-width="10" stroke-linecap="round"/>
    <path d="M426,250.5 L389,250.5" fill-opacity="0" stroke="#F2D000" stroke-width="10" stroke-linecap="round"/>
    <path d="M112.5,250.5 L75.5,250.5" fill-opacity="0" stroke="#F2D000" stroke-width="10" stroke-linecap="round"/>
    <path d="M369,122.419 L342.837,148.581" fill-opacity="0" stroke="#F2D000" stroke-width="10" stroke-linecap="round"/>
    <path d="M151.5,342.837 L125.337,369" fill-opacity="0" stroke="#F2D000" stroke-width="10" stroke-linecap="round"/>
    <path d="M151.5,158.163 L125.337,132" fill-opacity="0" stroke="#F2D000" stroke-width="10" stroke-linecap="round"/>
    <path d="M369,376.5 L342.837,350.337" fill-opacity="0" stroke="#F2D000" stroke-width="10" stroke-linecap="round"/>
  </g>
</svg>
