<?xml version="1.0" encoding="UTF-8"?>
<!DOCTYPE svg PUBLIC "-//W3C//DTD SVG 1.1//EN" "http://www.w3.org/Graphics/SVG/1.1/DTD/svg11.dtd">
<svg version="1.1" xmlns="http://www.w3.org/2000/svg" xmlns:xlink="http://www.w3.org/1999/xlink" x="0" y="0" width="500" height="500" viewBox="0, 0, 500, 500">
  <g id="Layer_3">
    <g>
      <path d="M59.326,13.536 L441.674,13.536 C467.413,13.536 488.279,34.401 488.279,60.14 L488.279,442.489 C488.279,468.228 467.413,489.094 441.674,489.094 L59.326,489.094 C33.587,489.094 12.721,468.228 12.721,442.489 L12.721,60.14 C12.721,34.401 33.587,13.536 59.326,13.536 z" fill="#FFFFFF"/>
      <path d="M59.326,13.536 L441.674,13.536 C467.413,13.536 488.279,34.401 488.279,60.14 L488.279,442.489 C488.279,468.228 467.413,489.094 441.674,489.094 L59.326,489.094 C33.587,489.094 12.721,468.228 12.721,442.489 L12.721,60.14 C12.721,34.401 33.587,13.536 59.326,13.536 z" fill-opacity="0" stroke="#B8B8B8" stroke-width="16"/>
    </g>
  </g>
  <g id="Layer_1">
    <path d="M82.5,193.5 C102.5,232.882 125.833,284.485 176.5,286.485 C245.446,289.207 324.5,71.167 324.5,71.167" fill-opacity="0" stroke="#B8B8B8" stroke-width="4"/>
    <g>
      <path d="M82.5,76.1 L82.5,329.5" fill-opacity="0" stroke="#383838" stroke-width="3"/>
      <path d="M86.7,76.1 L82.5,64.9 L78.3,76.1 z" fill="#383838" fill-opacity="1" stroke="#383838" stroke-width="3" stroke-opacity="1"/>
    </g>
    <g>
      <path d="M82.5,328.167 L417.9,328.167" fill-opacity="0" stroke="#383838" stroke-width="3"/>
      <path d="M417.9,332.367 L429.1,328.167 L417.9,323.967 z" fill="#383838" fill-opacity="1" stroke="#383838" stroke-width="3" stroke-opacity="1"/>
    </g>
    <path d="M43.5,235.5 L43.5,235.5" fill-opacity="0" stroke="#383838" stroke-width="1" stroke-linecap="round" stroke-linejoin="round"/>
    <g>
      <g>
        <path d="M114.833,321.833 L114.833,334.5" fill-opacity="0" stroke="#383838" stroke-width="3"/>
        <path d="M150.5,321.833 L150.5,334.5" fill-opacity="0" stroke="#383838" stroke-width="3"/>
        <g>
          <path d="M184.167,321.833 L184.167,334.5" fill-opacity="0" stroke="#383838" stroke-width="3"/>
          <path d="M219.833,321.833 L219.833,334.5" fill-opacity="0" stroke="#383838" stroke-width="3"/>
        </g>
      </g>
      <g>
        <path d="M255,321.833 L255,334.5" fill-opacity="0" stroke="#383838" stroke-width="3"/>
        <path d="M290.667,321.833 L290.667,334.5" fill-opacity="0" stroke="#383838" stroke-width="3"/>
        <g>
          <path d="M324.333,321.833 L324.333,334.5" fill-opacity="0" stroke="#383838" stroke-width="3"/>
          <path d="M360,321.833 L360,334.5" fill-opacity="0" stroke="#383838" stroke-width="3"/>
        </g>
      </g>
    </g>
    <path d="M88.833,119.25 L76.167,119.25" fill-opacity="0" stroke="#383838" stroke-width="3"/>
    <g>
      <path d="M88.833,152.917 L76.167,152.917" fill-opacity="0" stroke="#383838" stroke-width="3"/>
      <path d="M88.833,188.583 L76.167,188.583" fill-opacity="0" stroke="#383838" stroke-width="3"/>
    </g>
    <path d="M88.833,224.5 L76.167,224.5" fill-opacity="0" stroke="#383838" stroke-width="3"/>
    <path d="M88.833,260.167 L76.167,260.167" fill-opacity="0" stroke="#383838" stroke-width="3"/>
    <path d="M88.833,293.833 L76.167,293.833" fill-opacity="0" stroke="#383838" stroke-width="3"/>
  </g>
  <g id="Layer_2">
    <path d="M163.5,328.167 L399,71.167" fill-opacity="0" stroke="#009CF2" stroke-width="8"/>
    <text transform="matrix(1, 0, 0, 1, 256.5, 395.088)">
      <tspan x="-121.405" y="11.338" font-family="Arial-BoldMT" font-size="52" fill="#000000">derivative</tspan>
    </text>
    <path d="M226.5,273.257 C219.526,273.257 213.872,267.172 213.872,259.667 C213.872,252.161 219.526,246.076 226.5,246.076 C233.474,246.076 239.128,252.161 239.128,259.667 C239.128,267.172 233.474,273.257 226.5,273.257 z" fill="#009CF2"/>
  </g>
</svg>
