<?xml version="1.0" encoding="UTF-8"?>
<!DOCTYPE svg PUBLIC "-//W3C//DTD SVG 1.1//EN" "http://www.w3.org/Graphics/SVG/1.1/DTD/svg11.dtd">
<svg version="1.1" xmlns="http://www.w3.org/2000/svg" xmlns:xlink="http://www.w3.org/1999/xlink" x="0" y="0" width="500" height="500" viewBox="0, 0, 500, 500">
  <g id="Layer_3">
    <g>
      <path d="M59.326,13.536 L441.674,13.536 C467.413,13.536 488.279,34.401 488.279,60.14 L488.279,442.489 C488.279,468.228 467.413,489.094 441.674,489.094 L59.326,489.094 C33.587,489.094 12.721,468.228 12.721,442.489 L12.721,60.14 C12.721,34.401 33.587,13.536 59.326,13.536 z" fill="#FFFFFF"/>
      <path d="M59.326,13.536 L441.674,13.536 C467.413,13.536 488.279,34.401 488.279,60.14 L488.279,442.489 C488.279,468.228 467.413,489.094 441.674,489.094 L59.326,489.094 C33.587,489.094 12.721,468.228 12.721,442.489 L12.721,60.14 C12.721,34.401 33.587,13.536 59.326,13.536 z" fill-opacity="0" stroke="#B8B8B8" stroke-width="16"/>
    </g>
  </g>
  <g id="Layer_1">
    <g>
      <path d="M82.5,81.1 L82.5,334.5" fill-opacity="0" stroke="#383838" stroke-width="3"/>
      <path d="M86.7,81.1 L82.5,69.9 L78.3,81.1 z" fill="#383838" fill-opacity="1" stroke="#383838" stroke-width="3" stroke-opacity="1"/>
    </g>
    <g>
      <path d="M82.5,333.167 L417.9,333.167" fill-opacity="0" stroke="#383838" stroke-width="3"/>
      <path d="M417.9,337.367 L429.1,333.167 L417.9,328.967 z" fill="#383838" fill-opacity="1" stroke="#383838" stroke-width="3" stroke-opacity="1"/>
    </g>
    <path d="M43.5,240.5 L43.5,240.5" fill-opacity="0" stroke="#383838" stroke-width="1" stroke-linecap="round" stroke-linejoin="round"/>
    <g>
      <g>
        <path d="M114.833,326.833 L114.833,339.5" fill-opacity="0" stroke="#383838" stroke-width="3"/>
        <path d="M150.5,326.833 L150.5,339.5" fill-opacity="0" stroke="#383838" stroke-width="3"/>
        <g>
          <path d="M184.167,326.833 L184.167,339.5" fill-opacity="0" stroke="#383838" stroke-width="3"/>
          <path d="M219.833,326.833 L219.833,339.5" fill-opacity="0" stroke="#383838" stroke-width="3"/>
        </g>
      </g>
      <g>
        <path d="M255,326.833 L255,339.5" fill-opacity="0" stroke="#383838" stroke-width="3"/>
        <path d="M290.667,326.833 L290.667,339.5" fill-opacity="0" stroke="#383838" stroke-width="3"/>
        <g>
          <path d="M324.333,326.833 L324.333,339.5" fill-opacity="0" stroke="#383838" stroke-width="3"/>
          <path d="M360,326.833 L360,339.5" fill-opacity="0" stroke="#383838" stroke-width="3"/>
        </g>
      </g>
    </g>
    <path d="M88.833,124.25 L76.167,124.25" fill-opacity="0" stroke="#383838" stroke-width="3"/>
    <g>
      <path d="M88.833,157.917 L76.167,157.917" fill-opacity="0" stroke="#383838" stroke-width="3"/>
      <path d="M88.833,193.583 L76.167,193.583" fill-opacity="0" stroke="#383838" stroke-width="3"/>
    </g>
    <path d="M88.833,229.5 L76.167,229.5" fill-opacity="0" stroke="#383838" stroke-width="3"/>
    <path d="M88.833,265.167 L76.167,265.167" fill-opacity="0" stroke="#383838" stroke-width="3"/>
    <path d="M88.833,298.833 L76.167,298.833" fill-opacity="0" stroke="#383838" stroke-width="3"/>
    <path d="M82.5,298.833 C82.5,298.833 130.042,180.088 159.372,157.917 C188.703,135.745 194.406,202.553 260.399,202.553 C326.392,202.553 391.571,75.455 391.571,75.455" fill-opacity="0" stroke="#B8B8B8" stroke-width="4"/>
  </g>
  <g id="Layer_2">
    <path d="M82.5,236.772 L415.198,112.118" fill-opacity="0" stroke="#A6A6A6" stroke-width="4"/>
    <path d="M216.404,189.517 L216.404,333.167" fill-opacity="0" stroke="#A6A6A6" stroke-width="4" stroke-dasharray="8,8"/>
    <path d="M354.785,134.931 L354.785,334.5" fill-opacity="0" stroke="#A6A6A6" stroke-width="4" stroke-dasharray="8,8"/>
    <path d="M354.285,146.302 C347.311,146.302 341.657,140.218 341.657,132.712 C341.657,125.206 347.311,119.122 354.285,119.122 C361.26,119.122 366.914,125.206 366.914,132.712 C366.914,140.218 361.26,146.302 354.285,146.302 z" fill="#009CF2"/>
    <text transform="matrix(1, 0, 0, 1, 239.456, 413.426)">
      <tspan x="-95.054" y="11" font-family="Arial-BoldMT" font-size="60" fill="#000000">secant</tspan>
    </text>
    <path d="M216.404,189.517 L354.785,134.931" fill-opacity="0" stroke="#009CF2" stroke-width="8"/>
    <path d="M215.153,200.235 C208.179,200.235 202.525,194.15 202.525,186.644 C202.525,179.139 208.179,173.054 215.153,173.054 C222.127,173.054 227.781,179.139 227.781,186.644 C227.781,194.15 222.127,200.235 215.153,200.235 z" fill="#009CF2"/>
  </g>
</svg>
