<?xml version="1.0" encoding="UTF-8"?>
<!DOCTYPE svg PUBLIC "-//W3C//DTD SVG 1.1//EN" "http://www.w3.org/Graphics/SVG/1.1/DTD/svg11.dtd">
<svg version="1.1" xmlns="http://www.w3.org/2000/svg" xmlns:xlink="http://www.w3.org/1999/xlink" x="0" y="0" width="500" height="500" viewBox="0, 0, 500, 500">
  <defs>
    <radialGradient id="Gradient_1" gradientUnits="userSpaceOnUse" cx="220.759" cy="253.089" r="245.833">
      <stop offset="0.012" stop-color="#E1FC92"/>
      <stop offset="0.859" stop-color="#81B24C"/>
      <stop offset="1" stop-color="#67A125"/>
    </radialGradient>
  </defs>
  <g id="Layer_3">
    <g>
      <path d="M59.326,12.721 L441.674,12.721 C467.413,12.721 488.279,33.587 488.279,59.326 L488.279,441.674 C488.279,467.413 467.413,488.279 441.674,488.279 L59.326,488.279 C33.587,488.279 12.721,467.413 12.721,441.674 L12.721,59.326 C12.721,33.587 33.587,12.721 59.326,12.721 z" fill="url(#Gradient_1)"/>
      <path d="M59.326,12.721 L441.674,12.721 C467.413,12.721 488.279,33.587 488.279,59.326 L488.279,441.674 C488.279,467.413 467.413,488.279 441.674,488.279 L59.326,488.279 C33.587,488.279 12.721,467.413 12.721,441.674 L12.721,59.326 C12.721,33.587 33.587,12.721 59.326,12.721 z" fill-opacity="0" stroke="#B8B8B8" stroke-width="16"/>
    </g>
  </g>
  <g id="Layer_1">
    <path d="M43.5,235.5 L43.5,235.5" fill-opacity="0" stroke="#383838" stroke-width="1" stroke-linecap="round" stroke-linejoin="round"/>
    <path d="M298.791,129.713 L411.159,129.713 C429.835,129.713 444.975,144.111 444.975,161.872 L444.975,297.554 C444.975,315.315 429.835,329.713 411.159,329.713 L298.791,329.713 C280.115,329.713 264.975,315.315 264.975,297.554 L264.975,161.872 C264.975,144.111 280.115,129.713 298.791,129.713 z" fill="#FFFFFF"/>
    <path d="M88.841,129.713 L201.209,129.713 C219.885,129.713 235.025,144.111 235.025,161.872 L235.025,297.554 C235.025,315.315 219.885,329.713 201.209,329.713 L88.841,329.713 C70.165,329.713 55.025,315.315 55.025,297.554 L55.025,161.872 C55.025,144.111 70.165,129.713 88.841,129.713 z" fill="#FFFFFF"/>
    <g>
      <path d="M114.97,214.774 C103.496,214.774 94.194,205.655 94.194,194.406 C94.194,183.157 103.496,174.038 114.97,174.038 C126.444,174.038 135.745,183.157 135.745,194.406 C135.745,205.655 126.444,214.774 114.97,214.774 z" fill="#FF9937"/>
      <path d="M114.97,214.774 C103.496,214.774 94.194,205.655 94.194,194.406 C94.194,183.157 103.496,174.038 114.97,174.038 C126.444,174.038 135.745,183.157 135.745,194.406 C135.745,205.655 126.444,214.774 114.97,214.774 z" fill-opacity="0" stroke="#D06900" stroke-width="4"/>
    </g>
    <g>
      <path d="M181.777,307.163 C170.303,307.163 161.002,298.044 161.002,286.795 C161.002,275.546 170.303,266.426 181.777,266.426 C193.252,266.426 202.553,275.546 202.553,286.795 C202.553,298.044 193.252,307.163 181.777,307.163 z" fill="#FF9937"/>
      <path d="M181.777,307.163 C170.303,307.163 161.002,298.044 161.002,286.795 C161.002,275.546 170.303,266.426 181.777,266.426 C193.252,266.426 202.553,275.546 202.553,286.795 C202.553,298.044 193.252,307.163 181.777,307.163 z" fill-opacity="0" stroke="#D06900" stroke-width="4"/>
    </g>
    <g>
      <path d="M384.97,208.58 C373.496,208.58 364.194,199.461 364.194,188.212 C364.194,176.963 373.496,167.844 384.97,167.844 C396.444,167.844 405.745,176.963 405.745,188.212 C405.745,199.461 396.444,208.58 384.97,208.58 z" fill="#FF9937"/>
      <path d="M384.97,208.58 C373.496,208.58 364.194,199.461 364.194,188.212 C364.194,176.963 373.496,167.844 384.97,167.844 C396.444,167.844 405.745,176.963 405.745,188.212 C405.745,199.461 396.444,208.58 384.97,208.58 z" fill-opacity="0" stroke="#D06900" stroke-width="4"/>
    </g>
    <g>
      <path d="M102.258,288.424 C90.784,288.424 81.483,279.305 81.483,268.056 C81.483,256.807 90.784,247.688 102.258,247.688 C113.732,247.688 123.034,256.807 123.034,268.056 C123.034,279.305 113.732,288.424 102.258,288.424 z" fill="#FF9937"/>
      <path d="M102.258,288.424 C90.784,288.424 81.483,279.305 81.483,268.056 C81.483,256.807 90.784,247.688 102.258,247.688 C113.732,247.688 123.034,256.807 123.034,268.056 C123.034,279.305 113.732,288.424 102.258,288.424 z" fill-opacity="0" stroke="#D06900" stroke-width="4"/>
    </g>
  </g>
  <g id="Layer_2"/>
</svg>
